HIERARCHY
ROOT pelvis
{
  OFFSET 0 100 0
  CHANNELS 6 Xposition Yposition Zposition Zrotation Xrotation Yrotation
  JOINT pelvis_right_femur
  {
    OFFSET -10.78128 -3.44521 -0.5502486
    CHANNELS 3 Zrotation Xrotation Yrotation
    JOINT right_femur_tibia
    {
      OFFSET -0.8047443 -44.0398 -0.1307829
      CHANNELS 3 Zrotation Xrotation Yrotation
      JOINT right_tibia_foot
      {
        OFFSET 3.006224 -47.83518 -5
        CHANNELS 3 Zrotation Xrotation Yrotation
        End Site
        {
          OFFSET 0 -5 15
        }
      }
    }
  }
  JOINT pelvis_left_femur
  {
    OFFSET 10.78128 -3.44521 -0.5502486
    CHANNELS 3 Zrotation Xrotation Yrotation
    JOINT left_femur_tibia
    {
      OFFSET 0.8047443 -44.0398 -0.1307829
      CHANNELS 3 Zrotation Xrotation Yrotation
      JOINT left_tibia_foot
      {
        OFFSET -4.370144 -48.10324 -4.275266
        CHANNELS 3 Zrotation Xrotation Yrotation
        End Site
        {
          OFFSET 0 -5 15
        }
      }
    }
  }
  JOINT pelvis_spine1
  {
    OFFSET 0 6.468898 -3.129235
    CHANNELS 3 Zrotation Xrotation Yrotation
    JOINT spine1
    {
      OFFSET 0 23.15396 4.99043
      CHANNELS 3 Zrotation Xrotation Yrotation
      JOINT spine2
      {
        OFFSET 0 20.79997 -5.064912
        CHANNELS 3 Zrotation Xrotation Yrotation
        JOINT neck
        {
          OFFSET 0 14.38658 9.616178
          CHANNELS 3 Zrotation Xrotation Yrotation
          End Site
          {
            OFFSET 0 20 0
          }
        }
      }
      JOINT right_manubrium
      {
        OFFSET -5.722621 16.35077 3.967754
        CHANNELS 3 Zrotation Xrotation Yrotation
        JOINT right_clavicle
        {
          OFFSET -13.16364 1.694482 -4.693211
          CHANNELS 3 Zrotation Xrotation Yrotation
          JOINT right_humerus
          {
            OFFSET -28.5034 -0.3100689 -2.792744
            CHANNELS 3 Zrotation Xrotation Yrotation
            JOINT right_radius
            {
              OFFSET -25.15693 0.02248979 -1.271978
              CHANNELS 3 Zrotation Xrotation Yrotation
              End Site
              {
                OFFSET -15 0 0
              }
            }
          }
        }
      }
      JOINT left_manubrium
      {
        OFFSET 5.722621 16.35077 3.967754
        CHANNELS 3 Zrotation Xrotation Yrotation
        JOINT left_clavicle
        {
          OFFSET 13.16364 1.694482 -4.693211
          CHANNELS 3 Zrotation Xrotation Yrotation
          JOINT left_humerus
          {
            OFFSET 29.39168 -1.063119 -2.237045
            CHANNELS 3 Zrotation Xrotation Yrotation
            JOINT left_radius
            {
              OFFSET 24.59957 -0.9528479 0.9047498
              CHANNELS 3 Zrotation Xrotation Yrotation
              End Site
              {
                OFFSET 15 -0 -0
              }
            }
          }
        }
      }
    }
  }
}
MOTION
Frames: 7
Frame Time: 0.0416666666667
0 103.5113 0 -0.08401116 -1.233007 -0.0664847 -3.48089 1.720117 8.306639 -0 17.25608 -0 0.6369673 -16.91639 -1.328328 -4.700814 13.06101 -17.98124 -0 1.029286 -0 16.09733 -10.94468 26.34228 -2.146124 -7.189546 6.976608 2.196414 9.523216 -7.147016 -0.4036927 23.34548 10.42584 5.302823 -22.51585 11.16143 9.24314 -18.82346 11.04875 85.89437 40.28161 -18.82727 -0 0 7.9678 -9.593903 5.776056 16.50138 6.450109 -22.25827 -3.561629 -99.47878 30.72639 25.10152 0 0 -14.33782 0.3666728 12.5274 13.59404
0.475199 103.4701 0.5963587 -0.08785235 -1.235951 -0.09900572 -3.214359 -0.6630421 8.834339 -0 22.2285 -0 0.2148129 -16.70265 -2.305136 -4.945415 13.62848 -17.83789 -0 0.7157144 -0 15.60946 -11.45422 26.15968 -2.446226 -6.597161 6.815664 2.310172 9.609234 -7.293229 -0.1110085 23.21296 10.28413 5.195824 -22.83225 11.39084 9.17107 -18.88636 10.97413 85.5418 39.99165 -18.38739 -0 0 8.389363 -10.04278 5.707147 16.60896 6.436317 -22.26611 -3.477322 -99.21898 30.85412 24.89941 0 0 -14.54183 0.3725481 12.45645 13.72206
0.9220072 103.3836 1.318157 -0.0915546 -1.236639 -0.1129474 -2.775728 -3.518109 9.279359 -0 27.90257 -0 -0.2677487 -16.09033 -3.509002 -5.177315 14.24742 -17.69304 -0 0.4046155 -0 15.08432 -12.04103 25.94781 -2.750607 -6.036555 6.493743 2.393136 9.722249 -7.567115 0.1028208 23.11787 10.17087 5.082011 -23.08402 11.5457 9.089615 -19.03896 10.82237 85.09993 39.65013 -17.87779 -0 0 8.826105 -10.5449 5.612153 16.71966 6.39874 -22.24159 -3.404657 -98.95019 30.95509 24.75648 0 0 -14.64792 0.3349904 12.34009 13.82719
1.307559 103.3115 2.173179 -0.09482919 -1.233692 -0.09851232 -2.213486 -6.645814 9.450808 -0 33.73671 -0 -0.8525241 -15.27024 -4.82189 -5.341275 14.96084 -17.50093 -0 0.1424564 -0 14.46665 -12.62796 25.71328 -3.084634 -5.367513 6.019947 2.421785 9.944863 -7.973562 0.2122808 23.13716 10.05721 4.943785 -23.19282 11.56625 8.989684 -19.23066 10.62971 84.58735 39.26314 -17.35372 -0 0 9.229027 -11.06742 5.500174 16.80615 6.366504 -22.23857 -3.325931 -98.61592 31.04237 24.63729 0 0 -14.63698 0.2570798 12.16904 13.91904
1.629658 103.2209 3.367666 -0.09753674 -1.226624 -0.05134781 -1.483019 -10.13718 9.303747 -0 39.0245 -0 -1.586985 -14.49321 -5.993452 -5.478103 15.84264 -17.23982 0 -0.1389979 0 13.72611 -13.2138 25.43765 -3.378184 -4.817041 5.50034 2.497291 9.989038 -8.404127 0.3415301 22.98566 10.0171 4.82011 -23.35076 11.69715 8.873462 -19.37178 10.35109 84.14371 38.8413 -16.9938 -0 0 9.504043 -11.54106 5.406517 16.84147 6.240943 -22.11862 -3.289817 -98.3456 31.09917 24.66319 0 0 -14.44855 0.1097873 11.94021 14.02165
1.903921 103.2418 4.374857 -0.1071853 -1.260091 -0.3214275 -0.6142988 -14.03963 8.623557 -0 42.59925 -0 -2.429947 -13.7959 -6.647201 -5.675124 16.69863 -16.83091 0 -0.4476544 0 12.847 -13.76391 25.16638 -3.694949 -3.772516 5.114471 2.642177 9.903191 -8.745789 0.47458 22.73145 10.0121 4.728569 -23.56968 11.85141 8.858228 -19.65005 10.28083 83.67208 38.45921 -16.59313 -0 0 9.65263 -11.91328 5.367197 16.79896 6.059538 -22.12958 -3.376313 -98.00758 31.14881 24.5403 0 0 -14.28335 -0.0667344 11.66789 14.09236
2.173836 103.2477 5.987831 -0.1216589 -1.318995 -0.7921649 0.4729914 -17.98086 7.820443 -0 44.21227 -0 -3.213852 -12.55259 -6.680556 -5.931652 17.86513 -16.28206 0 -0.6392418 0 11.88819 -14.35311 24.87905 -3.901994 -3.033916 4.978347 2.861457 9.855411 -8.944167 0.6323633 22.46898 9.989041 4.686453 -23.8262 11.97719 8.723698 -19.72537 10.14749 83.45592 38.0851 -16.58169 -0 0 9.567323 -12.15767 5.402942 16.66608 5.948571 -21.98103 -3.288065 -97.81323 31.12267 24.48751 0 0 -14.24095 -0.2549494 11.3684 14.08615
